<svg version="1" xmlns="http://www.w3.org/2000/svg" width="666.667" height="666.667" viewBox="0 0 500.000000 500.000000"><path d="M257.7 169.6c-.1.1-3.3.4-7.2.8-16.1 1.5-28.7 4.3-64.1 14.5-18.6 5.3-38.3 14.3-54.4 24.6-17.1 11-25.3 18.1-60.1 51.6-9.5 9.2-19.9 18.3-29.4 25.7-3.6 2.8-17 12.3-22 15.7-22.9 15.1-25.7 22-10.5 25.5 5.9 1.4 27.9 1.7 41.5.6 17.4-1.5 27.8-2.5 31.5-3.1 1.4-.2 5.4-.7 9-1.1 3.6-.3 7.2-.7 8-.9 1.4-.2 5-.7 15.5-2.1 9-1.2 15.9-2.2 33.5-5 8.5-1.4 17.1-2.7 19-3 5.4-.8 18.7-3 22.5-3.8 1.1-.2 4.3-.7 7-1 2.8-.4 5.7-.9 6.5-1.1.8-.2 2.9-.7 4.5-.9 20.5-3.4 26.5-4.4 32-5.2 3.6-.4 34.1-5.1 38.2-5.8 1.5-.3 8.7-1.5 15.8-2.6 7.2-1.2 14.1-2.3 15.5-2.6 1.4-.2 9-1.5 16.9-2.9 7.9-1.4 15.3-2.7 16.5-3 1.1-.2 3.9-.6 6.1-.9 2.2-.3 8.3-1.4 13.5-2.5 5.2-1 10.9-2.2 12.5-2.4 8.2-1.4 45.3-9.1 54.5-11.3 43-10.4 66.1-19 69.1-25.8 2-4.3-.4-6.4-15.4-13.5-12.7-6-30.8-14.1-36.2-16.1-1.1-.5-4.2-1.8-6.8-2.9-17.1-7.6-57.2-20.8-81.2-26.8-5.5-1.3-10.7-2.6-11.5-2.8-13.9-3.6-40-7.8-56.3-9.1-7-.6-33.5-1.2-34-.8z"/></svg>