<svg width="476" height="170" viewBox="0 0 476 170" fill="none" xmlns="http://www.w3.org/2000/svg">
<g clip-path="url(#clip0)">
<path d="M120.39 139.12C118.94 142.213 116.62 145.017 113.43 147.53C110.337 150.14 107.002 151.445 103.425 151.445C99.8483 151.445 96.32 150.43 92.84 148.4C89.4567 146.467 86.7017 144.485 84.575 142.455C82.4483 140.425 79.4033 137.283 75.44 133.03C71.5733 128.777 68.915 125.925 67.465 124.475C62.3417 129.985 56.1067 132.74 48.76 132.74C43.9267 132.74 39.9633 131.532 36.87 129.115C33.7767 126.698 32.23 123.508 32.23 119.545C32.23 115.485 33.8733 112.053 37.16 109.25C40.5433 106.35 45.0383 104.9 50.645 104.9C53.835 104.9 57.025 105.432 60.215 106.495C61.1817 101.758 61.955 95.04 62.535 86.34C56.6383 85.2767 51.805 82.8117 48.035 78.945C44.3617 74.9817 42.525 69.52 42.525 62.56C42.525 59.8533 42.96 56.4217 43.83 52.265C44.8933 52.0717 46.295 51.975 48.035 51.975C49.775 51.975 51.5633 52.6517 53.4 54.005C52.1433 56.325 51.515 59.4183 51.515 63.285C51.515 71.115 55.3333 75.9483 62.97 77.785C63.3567 67.2483 63.9367 59.8533 64.71 55.6C65.4833 51.25 66.8367 47.1417 68.77 43.275C70.7033 39.3117 73.8933 35.7833 78.34 32.69C82.8833 29.5967 88.635 28.05 95.595 28.05C102.555 28.05 107.92 30.1283 111.69 34.285C115.557 38.345 117.49 43.1783 117.49 48.785C117.49 56.615 113.865 64.5417 106.615 72.565C99.4617 80.4917 90.5683 85.325 79.935 87.065C76.9383 100.115 74.7633 108.96 73.41 113.6C74.9567 114.76 77.76 116.935 81.82 120.125C85.9767 123.315 89.1183 125.683 91.245 127.23C93.4683 128.68 96.4167 130.13 100.09 131.58C103.86 133.127 107.485 133.9 110.965 133.9L117.055 133.465C118.698 135.785 119.81 137.67 120.39 139.12ZM107.775 50.09C107.775 47.19 107.002 44.8217 105.455 42.985C104.005 41.1483 102.023 40.23 99.51 40.23C93.0333 40.23 88.2967 47.2867 85.3 61.4C83.6567 69.1333 82.4967 74.74 81.82 78.22C88.9733 76.9633 95.0633 73.435 100.09 67.635C105.213 61.7383 107.775 55.89 107.775 50.09ZM47.455 121.865C50.8383 121.865 53.835 120.028 56.445 116.355C53.6417 114.615 50.8383 113.745 48.035 113.745C43.8783 113.745 41.8 115.098 41.8 117.805C41.8 119.158 42.38 120.173 43.54 120.85C44.7 121.527 46.005 121.865 47.455 121.865ZM151.954 70.97C152.147 70.7767 152.679 69.52 153.549 67.2C158.092 67.2 164.182 68.5533 171.819 71.26C169.402 79.2833 167.469 87.6933 166.019 96.49C164.569 105.19 163.844 111.425 163.844 115.195C163.844 118.868 164.23 120.705 165.004 120.705C165.584 120.705 167.71 119.787 171.384 117.95L173.124 117.08L175.734 122.155C174.864 122.928 173.704 123.895 172.254 125.055C170.9 126.215 168.29 127.81 164.424 129.84C160.557 131.773 157.077 132.74 153.984 132.74C147.99 132.74 144.51 130.033 143.544 124.62C137.357 130.033 131.75 132.74 126.724 132.74C121.794 132.74 117.589 130.807 114.109 126.94C110.725 123.073 109.034 116.983 109.034 108.67C109.034 95.7167 111.692 85.5183 117.009 78.075C122.325 70.535 128.754 66.765 136.294 66.765C141.707 66.765 146.927 68.1667 151.954 70.97ZM135.424 120.415C137.744 120.415 140.354 119.497 143.254 117.66C143.93 104.03 146.202 90.545 150.069 77.205C147.169 75.9483 144.704 75.32 142.674 75.32C139.194 75.32 136.197 78.7517 133.684 85.615C131.267 92.3817 130.059 99.8733 130.059 108.09C130.059 116.307 131.847 120.415 135.424 120.415ZM182.327 131.435H179.572C179.572 126.892 180.925 118.192 183.632 105.335C186.435 92.4783 187.837 85.18 187.837 83.44C187.837 80.25 186.483 76.8667 183.777 73.29L182.472 71.55L182.617 69.665C187.837 68.215 196.198 67.49 207.702 67.49C208.958 69.1333 209.635 72.13 209.732 76.48C218.142 70.0033 225.247 66.765 231.047 66.765C234.527 66.765 237.282 67.9733 239.312 70.39C241.438 72.8067 242.502 75.8517 242.502 79.525C242.502 83.1017 241.39 89.3367 239.167 98.23C236.943 107.123 235.832 113.117 235.832 116.21C235.832 119.207 236.218 120.705 236.992 120.705C237.572 120.705 239.602 119.787 243.082 117.95L244.822 117.08L247.432 122.155C246.562 122.928 245.402 123.895 243.952 125.055C242.502 126.215 239.795 127.81 235.832 129.84C231.965 131.773 228.485 132.74 225.392 132.74C218.335 132.74 214.807 128.728 214.807 120.705C214.807 117.322 215.87 111.087 217.997 102C220.22 92.9133 221.332 87.065 221.332 84.455C221.332 81.845 220.51 80.54 218.867 80.54C216.063 80.54 212.632 81.7483 208.572 84.165C208.282 85.8083 207.315 90.1583 205.672 97.215C202.288 112.392 200.597 123.122 200.597 129.405C197.213 130.758 191.123 131.435 182.327 131.435ZM320.774 122.155C312.558 129.212 305.308 132.74 299.024 132.74C292.838 132.74 289.261 129.647 288.294 123.46C285.394 126.36 282.156 128.632 278.579 130.275C275.003 131.918 271.861 132.74 269.154 132.74C264.514 132.74 260.551 130.71 257.264 126.65C253.978 122.59 252.334 116.307 252.334 107.8C252.334 95.04 255.041 85.035 260.454 77.785C265.868 70.4383 271.958 66.765 278.724 66.765C285.588 66.765 291.339 68.3117 295.979 71.405C298.976 55.745 300.474 43.42 300.474 34.43L299.749 28.34C306.999 25.8267 314.104 24.57 321.064 24.57C321.838 26.2133 322.224 28.0983 322.224 30.225C322.224 37.2817 320.098 51.6367 315.844 73.29C311.591 94.8467 309.464 109.492 309.464 117.225C309.464 119.545 309.996 120.705 311.059 120.705C311.639 120.705 313.476 119.787 316.569 117.95L318.019 117.08L320.774 122.155ZM285.829 75.32C282.446 75.32 279.498 78.655 276.984 85.325C274.568 91.995 273.359 98.6167 273.359 105.19C273.359 111.667 273.794 115.823 274.664 117.66C275.631 119.497 277.033 120.415 278.869 120.415C282.059 120.415 285.201 119.11 288.294 116.5C288.584 112.633 290.759 99.7767 294.819 77.93C291.533 76.19 288.536 75.32 285.829 75.32ZM354.843 75.755C354.843 79.815 353.538 86.8233 350.928 96.78C348.318 106.64 347.013 113.117 347.013 116.21C347.013 119.207 347.448 120.705 348.318 120.705C348.898 120.705 351.121 119.787 354.988 117.95L356.728 117.08L359.193 122.155C358.323 122.928 357.163 123.895 355.713 125.055C354.263 126.215 351.556 127.81 347.593 129.84C343.629 131.773 339.956 132.74 336.573 132.74C333.189 132.74 330.531 131.725 328.598 129.695C326.664 127.568 325.698 124.765 325.698 121.285C325.698 117.708 326.906 111.425 329.323 102.435C331.739 93.3483 332.948 87.4517 332.948 84.745C332.948 80.685 331.691 76.8667 329.178 73.29L327.873 71.55L328.018 69.665C333.141 68.215 341.454 67.49 352.958 67.49C354.214 68.94 354.843 71.695 354.843 75.755ZM338.313 51.685C336.379 49.7517 335.413 47.19 335.413 44C335.413 40.81 336.718 38.0067 339.328 35.59C342.034 33.1733 345.128 31.965 348.608 31.965C352.088 31.965 354.794 32.9317 356.728 34.865C358.661 36.7983 359.628 39.36 359.628 42.55C359.628 45.6433 358.226 48.3983 355.423 50.815C352.716 53.2317 349.671 54.44 346.288 54.44C342.904 54.44 340.246 53.5217 338.313 51.685ZM384.634 132.74C377.964 132.74 372.744 130.42 368.974 125.78C365.204 121.043 363.319 114.47 363.319 106.06C363.319 95.33 366.171 86.0983 371.874 78.365C377.674 70.6317 385.649 66.765 395.799 66.765L401.019 67.055C402.663 66.185 404.499 65.75 406.529 65.75C414.166 65.75 417.984 72.9517 417.984 87.355C421.948 87.1617 425.959 86.63 430.019 85.76L432.339 85.18L433.209 90.835C430.019 92.1883 425.718 93.3967 420.304 94.46L417.404 95.04C415.568 105.19 411.846 114.035 406.239 121.575C400.633 129.018 393.431 132.74 384.634 132.74ZM392.464 120.27C396.524 120.27 400.149 117.66 403.339 112.44C406.626 107.22 408.898 101.71 410.154 95.91C399.811 95.91 394.639 92.0433 394.639 84.31C394.639 81.2167 395.268 78.3167 396.524 75.61L397.249 74.16C396.863 73.9667 396.379 73.87 395.799 73.87C395.219 73.87 394.784 73.9667 394.494 74.16C392.078 75.7067 389.806 79.3317 387.679 85.035C385.553 90.7383 384.489 97.2633 384.489 104.61C384.489 115.05 387.148 120.27 392.464 120.27Z" fill="black"/>
</g>
<defs>
<clipPath id="clip0">
<rect width="476" height="170" fill="white"/>
</clipPath>
</defs>
</svg>
